<?xml version="1.0" encoding="utf-8"?>
<!-- Generator: Adobe Illustrator 27.0.0, SVG Export Plug-In . SVG Version: 6.00 Build 0)  -->
<svg version="1.1" id="Layer_1" xmlns="http://www.w3.org/2000/svg" xmlns:xlink="http://www.w3.org/1999/xlink" x="0px" y="0px"
	 viewBox="0 0 120 120" style="enable-background:new 0 0 120 120;" xml:space="preserve">
<style type="text/css">
	.st0{fill:#274182;}
</style>
<g transform="translate(0.000000,120.000000) scale(0.100000,-0.100000)">
	<path class="st0" d="M535,1194c-11-2-45-9-75-15C256,1139,70,954,19,740C2,669,2,531,19,460C70,247,247,70,460,19
		c30-7,93-13,140-13c170,0,301,54,421,173c119,120,173,251,173,421c0,104-15,172-61,269c-68,144-228,272-385,310
		C694,1192,565,1201,535,1194z M722,1159c100-21,196-75,279-158c229-229,229-573,0-802s-573-229-802,0C83,315,30,441,30,600
		c0,38,5,93,11,122c41,199,222,385,422,434C529,1172,653,1173,722,1159z"/>
	<path class="st0" d="M402,805c-22-18-32-37-37-71c-4-28-2-51,3-56c7-7,7-19,1-35c-5-13-7-65-4-116c4-89,5-93,37-119
		c24-21,43-28,75-28c23,0,45,4,48,10c3,5,19,7,35,3l30-5v141c0,163-6,184-53,179c-24-2-33,1-35,15c-4,18,22,24,33,7c3-5,17-10,30-10
		s27-5,30-10c4-6,6-80,6-165c-1-100,2-155,9-155c6,0,10,32,10,80c0,47,4,80,10,80s10-35,10-85v-85h56c50,0,59,3,90,34l34,34v151
		c0,204-16,231-130,231h-50v-53c0-62,11-77,57-77c23,0,33-5,33-15c0-8,4-15,9-15c17,0,23,20,11,35c-10,12-9,15,3,15c23,0,27-37,6-56
		c-17-15-20-15-45,5c-15,12-37,21-50,21c-31,0-44,27-44,89v51h-94C440,830,429,828,402,805z M494,691c-5-6-34,20-34,30c0,5,8,1,18-8
		C488,703,495,693,494,691z M476,601c5-5,18-11,29-14s1-5-21-6c-29-1-44,4-48,14C430,612,459,616,476,601z M748,583
		c-10-2-18-11-18-20c0-11-6-14-22-9c-13,3-32,6-42,6c-27,0-9,17,24,23C724,589,770,589,748,583z"/>
</g>
</svg>
